<?xml version="1.0" standalone="no"?>
<!DOCTYPE svg PUBLIC "-//W3C//DTD SVG 20010904//EN"
 "http://www.w3.org/TR/2001/REC-SVG-20010904/DTD/svg10.dtd">
<svg version="1.0" xmlns="http://www.w3.org/2000/svg"
 width="2500.000000pt" height="2500.000000pt" viewBox="0 0 2500.000000 2500.000000"
 preserveAspectRatio="xMidYMid meet">

<g transform="translate(0.000000,2500.000000) scale(0.100000,-0.100000)" stroke="none">
<path stroke="currentColor" fill="currentColor" d="M11815 24359 c-1551 -78 -3091 -418 -4480 -990 -426 -176 -1013 -457
-1375 -660 -1049 -586 -1936 -1254 -2755 -2074 -563 -563 -1002 -1097 -1434
-1745 -977 -1466 -1564 -3100 -1725 -4805 -34 -359 -40 -510 -40 -965 1 -749
54 -1300 194 -2000 286 -1429 854 -2738 1743 -4020 l45 -65 -9 -85 c-5 -47
-18 -173 -30 -280 -105 -1007 -286 -1980 -515 -2773 -317 -1102 -740 -1948
-1241 -2485 -120 -129 -148 -169 -173 -251 -78 -248 100 -512 356 -529 88 -6
171 5 514 64 1862 323 3740 866 5215 1509 364 158 859 403 1145 565 l145 82
55 -20 c30 -11 150 -56 265 -100 1020 -386 2167 -658 3285 -776 591 -63 972
-80 1650 -73 521 5 759 16 1145 52 2863 271 5488 1399 7542 3241 202 181 622
596 797 788 1516 1661 2460 3613 2761 5710 76 527 99 874 99 1451 0 448 -6
605 -40 960 -149 1588 -678 3138 -1546 4529 -1367 2192 -3519 3920 -6088 4891
-1317 497 -2706 782 -4169 855 -234 11 -1098 11 -1336 -1z"/>
</g>
</svg>
