<?xml version="1.0" standalone="no"?>
<!DOCTYPE svg PUBLIC "-//W3C//DTD SVG 20010904//EN"
 "http://www.w3.org/TR/2001/REC-SVG-20010904/DTD/svg10.dtd">
<svg version="1.0" xmlns="http://www.w3.org/2000/svg"
 width="100.000000pt" height="100.000000pt" viewBox="0 0 100.000000 100.000000"
 preserveAspectRatio="xMidYMid meet">

<g transform="translate(0.000000,100.000000) scale(0.100000,-0.100000)"
fill="currentColor" stroke="none">
<path d="M489 539 l-233 -280 -100 100 c-56 56 -108 101 -117 101 -19 0 -39
-20 -39 -40 0 -21 241 -260 262 -260 18 0 510 587 516 615 5 21 -16 45 -39 45
-11 0 -102 -101 -250 -281z"/>
<path d="M710 540 c-210 -253 -234 -278 -251 -267 -23 14 -52 0 -57 -28 -5
-21 55 -85 79 -85 19 0 511 586 517 615 5 21 -16 45 -39 45 -11 0 -102 -101
-249 -280z"/>
</g>
</svg>
