<?xml version="1.0" standalone="no"?>
<!DOCTYPE svg PUBLIC "-//W3C//DTD SVG 20010904//EN"
 "http://www.w3.org/TR/2001/REC-SVG-20010904/DTD/svg10.dtd">
<svg version="1.0" xmlns="http://www.w3.org/2000/svg"
 width="512.000000pt" height="512.000000pt" viewBox="0 0 512.000000 512.000000"
 preserveAspectRatio="xMidYMid meet">

<g transform="translate(0.000000,512.000000) scale(0.100000,-0.100000)"
fill="currentColor" stroke="none">
<path d="M270 4881 c-84 -26 -162 -85 -208 -159 -66 -104 -62 51 -62 -2163 0
-1981 0 -2008 20 -2070 36 -114 112 -194 229 -241 l56 -23 2255 0 2255 0 56
23 c117 47 193 127 229 241 20 62 20 90 20 1771 0 1681 0 1709 -20 1771 -36
114 -115 197 -226 239 -54 20 -73 20 -1167 20 l-1112 0 -270 269 c-202 201
-284 276 -325 297 l-55 29 -825 2 c-454 1 -836 -2 -850 -6z m1658 -156 c24
-11 133 -112 320 -298 l282 -282 1149 -5 1149 -5 43 -30 c27 -19 54 -50 71
-84 28 -52 28 -56 28 -226 l0 -172 -57 28 c-32 15 -66 31 -75 33 -16 5 -18 20
-18 134 0 115 -2 130 -20 150 l-21 22 -2219 0 -2219 0 -21 -22 c-19 -21 -20
-33 -20 -450 0 -400 -1 -429 -17 -434 -10 -2 -44 -18 -75 -33 l-58 -28 0 769
c0 834 -2 799 55 874 13 17 43 41 67 53 43 21 48 21 831 21 688 0 792 -2 825
-15z m2742 -960 l0 -75 -1865 0 -1864 0 -21 -22 c-37 -40 -21 -97 34 -118 18
-7 359 -10 1024 -10 l997 0 -225 -225 -225 -225 -1037 0 -1038 0 0 225 0 225
109 0 c114 0 155 9 177 38 20 25 17 65 -6 90 -19 20 -30 22 -150 22 l-130 0 0
75 0 75 2110 0 2110 0 0 -75z m201 -260 c27 -19 54 -50 71 -84 l28 -53 0
-1408 0 -1408 -28 -53 c-36 -69 -88 -106 -167 -119 -82 -13 -4348 -13 -4430 0
-79 13 -131 50 -167 119 l-28 53 0 1108 0 1108 28 53 c17 34 44 65 71 84 l43
30 1149 5 1149 5 282 282 c169 168 297 288 318 297 31 13 138 15 837 13 l801
-2 43 -30z"/>
</g>
</svg>
