<?xml version="1.0" standalone="no"?>
<!DOCTYPE svg PUBLIC "-//W3C//DTD SVG 20010904//EN"
 "http://www.w3.org/TR/2001/REC-SVG-20010904/DTD/svg10.dtd">
<svg version="1.0" xmlns="http://www.w3.org/2000/svg"
 width="105.000000pt" height="105.000000pt" viewBox="0 0 105.000000 105.000000"
 preserveAspectRatio="xMidYMid meet">

<g transform="translate(0.000000,105.000000) scale(0.100000,-0.100000)"
fill="#000000" stroke="none">
<path d="M425 1040 c-254 -55 -425 -264 -425 -520 0 -229 140 -426 355 -500
82 -28 258 -28 340 0 84 29 142 66 205 129 201 205 201 537 0 742 -97 98 -208
147 -350 154 -47 2 -103 0 -125 -5z m208 -65 c216 -56 357 -236 357 -455 0
-303 -286 -530 -573 -455 -216 56 -357 236 -357 455 0 303 286 530 573 455z"/>
<path d="M432 767 c-52 -16 -128 -90 -149 -145 -40 -106 -14 -222 67 -295 100
-90 246 -92 346 -4 52 46 70 77 85 147 16 74 8 80 -111 80 -78 0 -99 -3 -104
-15 -13 -35 4 -45 80 -45 85 0 89 -6 52 -71 -51 -91 -175 -126 -268 -77 -55
30 -100 98 -107 162 -7 63 32 143 89 182 36 25 50 29 113 29 62 0 77 -4 114
-28 34 -22 45 -26 57 -16 8 6 14 17 14 25 0 17 -56 58 -99 73 -41 13 -134 13
-179 -2z"/>
</g>
</svg>
