<?xml version="1.0" standalone="no"?>
<!DOCTYPE svg PUBLIC "-//W3C//DTD SVG 20010904//EN"
 "http://www.w3.org/TR/2001/REC-SVG-20010904/DTD/svg10.dtd">
<svg version="1.0" xmlns="http://www.w3.org/2000/svg"
 width="100.000000pt" height="100.000000pt" viewBox="0 0 100.000000 100.000000"
 preserveAspectRatio="xMidYMid meet">

<g transform="translate(0.000000,100.000000) scale(0.100000,-0.100000)"
fill="#000000" stroke="none">
<path d="M291 946 c-87 -48 -50 -186 49 -186 51 0 100 49 100 99 0 75 -83 124
-149 87z"/>
<path d="M614 950 c-55 -22 -72 -108 -31 -155 14 -17 36 -28 63 -32 36 -4 46
-1 74 24 85 76 0 206 -106 163z"/>
<path d="M292 733 c-9 -3 -5 -13 12 -34 46 -54 46 -143 2 -196 l-24 -29 32
-20 31 -21 -3 36 c-5 56 34 122 85 146 48 23 51 32 22 69 -36 46 -108 69 -157
49z"/>
<path d="M591 723 c-18 -9 -42 -30 -52 -47 l-18 -30 36 -18 c74 -36 109 -93
101 -164 -2 -19 -4 -34 -3 -34 1 0 15 11 33 24 31 23 32 23 12 41 -48 43 -51
141 -6 199 l25 34 -22 6 c-37 10 -70 6 -106 -11z"/>
<path d="M135 711 c-45 -20 -70 -60 -70 -112 0 -41 5 -53 30 -79 83 -83 220
-16 201 98 -11 70 -98 120 -161 93z"/>
<path d="M775 711 c-45 -20 -70 -60 -70 -112 0 -41 5 -53 30 -79 83 -83 220
-16 201 98 -11 70 -98 120 -161 93z"/>
<path d="M455 591 c-45 -20 -70 -60 -70 -112 0 -41 5 -53 30 -79 39 -39 90
-48 138 -25 72 34 86 130 29 188 -31 31 -91 44 -127 28z"/>
<path d="M104 441 c-72 -33 -108 -102 -102 -196 3 -43 7 -52 31 -63 34 -16
161 -27 210 -18 31 6 36 11 46 50 6 25 23 58 37 75 18 22 24 38 20 55 -15 60
-95 116 -166 116 -19 0 -53 -9 -76 -19z"/>
<path d="M744 441 c-41 -19 -78 -57 -89 -92 -4 -13 4 -36 24 -66 17 -25 33
-61 37 -80 5 -24 13 -35 31 -39 39 -10 187 2 219 17 25 12 29 20 32 64 6 94
-30 163 -102 196 -52 24 -100 24 -152 0z"/>
<path d="M422 319 c-26 -13 -55 -39 -70 -62 -23 -34 -27 -51 -27 -111 0 -68 1
-71 30 -86 42 -21 248 -21 290 0 26 13 30 21 33 65 6 94 -30 163 -102 196 -54
24 -101 24 -154 -2z"/>
</g>
</svg>
